<svg width="48" height="43" viewBox="0 0 48 43" fill="none" xmlns="http://www.w3.org/2000/svg">
<path d="M0 14.9799C0 13.0482 1.03613 11.2139 2.834 9.96287L14.8986 1.56753C17.9022 -0.522508 22.3133 -0.522512 25.3168 1.56753L37.3815 9.96286C39.1794 11.2139 40.2155 13.0482 40.2155 14.9799V31.6887C40.2155 35.3252 36.6145 38.2733 32.1724 38.2733H8.0431C3.60102 38.2733 0 35.3252 0 31.6887V14.9799Z" fill="#B072FF"/>
<path d="M7.78465 19.7067C7.78465 17.775 8.82078 15.9407 10.6187 14.6896L22.6833 6.29428C25.6868 4.20424 30.098 4.20423 33.1015 6.29427L45.1661 14.6896C46.964 15.9407 48.0001 17.775 48.0001 19.7067V36.4154C48.0001 40.052 44.3991 43 39.9571 43H15.8278C11.3857 43 7.78465 40.052 7.78465 36.4154V19.7067Z" fill="#33373B"/>
</svg>
